<?xml version="1.0" encoding="utf-8"?>
<!-- Generator: Adobe Illustrator 15.0.0, SVG Export Plug-In . SVG Version: 6.00 Build 0)  -->
<!DOCTYPE svg PUBLIC "-//W3C//DTD SVG 1.1//EN" "http://www.w3.org/Graphics/SVG/1.1/DTD/svg11.dtd">
<svg version="1.1" id="Layer_1" xmlns="http://www.w3.org/2000/svg" xmlns:xlink="http://www.w3.org/1999/xlink" x="0px" y="0px"
	 width="50px" height="45.5px" viewBox="0 0 50 45.5" enable-background="new 0 0 50 45.5" xml:space="preserve">
<path fill="#FFFFFF" d="M12.939,22.461c4.423,0,8.006-3.586,8.006-8.008c0-4.417-3.583-8.003-8.006-8.003s-8.006,3.587-8.006,8.003
	C4.934,18.875,8.517,22.461,12.939,22.461"/>
<path fill="#FFFFFF" d="M32.473,22.461c4.422,0,8.005-3.586,8.005-8.008c0-4.417-3.583-8.003-8.005-8.003
	c-4.423,0-8.006,3.587-8.006,8.003C24.467,18.875,28.05,22.461,32.473,22.461"/>
<path fill="#FFFFFF" d="M38.876,40.671c4.422,0,8.006-3.586,8.006-8.008c0-4.417-3.584-8.003-8.006-8.003
	c-4.423,0-8.006,3.586-8.006,8.003C30.87,37.085,34.453,40.671,38.876,40.671"/>
</svg>
